<?xml version="1.0" standalone="no"?>
<!DOCTYPE svg PUBLIC "-//W3C//DTD SVG 20010904//EN"
 "http://www.w3.org/TR/2001/REC-SVG-20010904/DTD/svg10.dtd">
<svg version="1.0" xmlns="http://www.w3.org/2000/svg"
 width="256.000000pt" height="256.000000pt" viewBox="0 0 256.000000 256.000000"
 preserveAspectRatio="xMidYMid meet">
<metadata>
Created by potrace 1.11, written by Peter Selinger 2001-2013
</metadata>
<g transform="translate(0.000000,256.000000) scale(0.100000,-0.100000)"
fill="#000000" stroke="none">
<path d="M0 1280 l0 -1280 1280 0 1280 0 0 1280 0 1280 -1280 0 -1280 0 0
-1280z m703 1108 c15 -8 17 -27 17 -178 0 -225 -15 -210 210 -210 191 0 190 1
190 -80 0 -80 1 -80 -188 -80 -129 0 -173 -3 -188 -14 -17 -13 -19 -31 -24
-193 l-5 -178 -38 -12 c-29 -10 -45 -10 -75 0 l-37 12 -5 178 c-5 162 -7 180
-24 193 -15 11 -59 14 -188 14 -189 0 -188 0 -188 80 0 80 -1 80 188 80 129 0
173 3 188 14 17 13 19 31 24 193 l5 178 35 12 c35 11 69 8 103 -9z m1687 -407
c13 -25 13 -97 0 -122 -10 -18 -26 -19 -470 -19 -444 0 -460 1 -470 19 -13 25
-13 97 0 122 10 18 26 19 470 19 444 0 460 -1 470 -19z m-2105 -865 c12 -3 28
-19 37 -34 9 -15 28 -34 41 -41 14 -7 31 -24 38 -38 7 -13 25 -31 40 -40 15
-9 33 -27 40 -40 7 -13 26 -32 41 -41 15 -9 28 -19 28 -23 0 -3 11 -18 25 -33
34 -37 96 -37 130 0 14 15 25 30 25 34 0 4 12 13 26 20 14 8 32 26 41 41 9 15
27 33 40 40 13 7 31 25 40 40 9 15 27 33 40 40 13 7 32 26 41 41 20 34 69 50
114 37 41 -11 48 -23 48 -82 0 -36 -5 -51 -22 -65 -24 -20 -46 -41 -69 -68
-10 -10 -28 -28 -40 -40 -13 -11 -31 -29 -40 -40 -10 -10 -28 -28 -40 -40 -13
-11 -31 -29 -40 -40 -10 -10 -29 -29 -43 -41 -37 -31 -37 -95 0 -126 14 -12
33 -31 43 -41 9 -11 27 -29 40 -40 12 -12 30 -30 40 -40 20 -24 43 -47 67 -67
10 -10 28 -28 40 -40 11 -13 30 -32 42 -41 17 -14 22 -28 22 -65 0 -59 -7 -71
-48 -82 -45 -13 -94 3 -114 37 -9 15 -28 34 -41 41 -14 7 -31 24 -38 38 -7 13
-25 31 -40 40 -14 9 -33 28 -42 42 -9 15 -27 33 -41 41 -14 7 -26 16 -26 20 0
4 -11 19 -25 34 -34 37 -96 37 -130 0 -14 -15 -25 -30 -25 -33 0 -4 -13 -14
-28 -23 -15 -9 -34 -28 -41 -41 -7 -13 -25 -31 -40 -40 -15 -9 -33 -27 -40
-40 -7 -14 -24 -31 -38 -38 -13 -7 -32 -26 -41 -41 -20 -34 -69 -50 -114 -37
-41 11 -48 23 -48 82 0 37 5 51 22 65 12 9 31 28 42 41 12 12 30 30 40 40 24
20 47 43 67 67 10 10 28 28 40 40 13 11 31 29 40 40 10 10 29 29 43 41 37 31
37 95 0 126 -14 12 -33 31 -43 41 -9 11 -27 29 -40 40 -12 12 -30 30 -40 40
-9 11 -27 29 -40 40 -12 12 -30 30 -40 40 -23 27 -45 48 -69 68 -17 14 -22 29
-22 65 0 58 8 71 46 82 28 9 38 8 79 -3z m1783 -88 c8 -8 12 -46 12 -104 0
-126 2 -124 -160 -124 -162 0 -160 -2 -160 124 0 58 4 96 12 104 17 17 279 17
296 0z m322 -327 c13 -25 13 -97 0 -122 -10 -18 -26 -19 -470 -19 -444 0 -460
1 -470 19 -13 25 -13 97 0 122 10 18 26 19 470 19 444 0 460 -1 470 -19z
m-326 -237 c20 -19 23 -193 4 -212 -17 -17 -279 -17 -296 0 -19 19 -16 193 4
212 23 23 265 23 288 0z"/>
</g>
</svg>
